<?xml version="1.0" encoding="UTF-8" standalone="no"?><!DOCTYPE svg PUBLIC "-//W3C//DTD SVG 1.1//EN" "http://www.w3.org/Graphics/SVG/1.1/DTD/svg11.dtd"><svg width="100%" height="100%" viewBox="0 0 721 110" version="1.1" xmlns="http://www.w3.org/2000/svg" xmlns:xlink="http://www.w3.org/1999/xlink" xml:space="preserve" xmlns:serif="http://www.serif.com/" style="fill-rule:evenodd;clip-rule:evenodd;stroke-linejoin:round;stroke-miterlimit:1.41421;"><rect id="Artboard1" x="0" y="0" width="720.175" height="109.895" style="fill:none;"/><g><path d="M54.607,78.487l-25.912,0l-6.372,15.292l-15.186,0l35.257,-81.241l0.85,0l35.257,81.241l-17.841,0l-6.053,-15.292Zm-5.098,-12.956l-7.54,-19.01l-7.858,19.01l15.398,0Z" style="fill:#222;fill-rule:nonzero;"/><path d="M105.263,15.618l0,63.293l36.744,0l0,14.868l-52.143,0l0,-78.161l15.399,0Z" style="fill:#222;fill-rule:nonzero;"/><path d="M181.619,15.618c9.558,0 16.956,2.354 22.195,7.062c5.239,4.708 7.859,11.133 7.859,19.275c0,4.672 -0.903,9.044 -2.708,13.115c-1.806,4.071 -4.744,7.416 -8.815,10.036c-4.071,2.619 -9.327,3.929 -15.77,3.929l-11.045,0l0,24.744l-15.398,0l0,-78.161l23.682,0Zm2.655,38.443c2.902,0 5.239,-0.655 7.009,-1.964c1.77,-1.31 3.044,-2.85 3.823,-4.62c0.779,-1.77 1.168,-3.469 1.168,-5.097c0,-2.762 -0.814,-5.434 -2.443,-8.018c-1.628,-2.584 -4.778,-3.877 -9.451,-3.877l-11.045,0l0,23.576l10.939,0Z" style="fill:#222;fill-rule:nonzero;"/><path d="M278.789,15.618l0,14.867l-37.912,0l0,16.673l33.558,0l0,14.868l-33.558,0l0,16.885l39.399,0l0,14.868l-54.798,0l0,-78.161l53.311,0Z" style="fill:#222;fill-rule:nonzero;"/><path d="M366.614,15.618l0,81.347l-0.424,0l-54.692,-49.382l0.319,46.196l-15.611,0l0,-81.241l0.637,0l54.585,50.125l-0.318,-47.045l15.504,0Z" style="fill:#222;fill-rule:nonzero;"/><path d="M486.299,97.177l-18.585,-46.302l-21.664,46.515l-31.435,-81.241l18.054,0l15.399,45.24l11.894,-29.842l-6.16,-15.398l15.293,0l17.522,43.435l13.275,-43.435l16.567,0l-30.16,81.028Z" style="fill:#222;fill-rule:nonzero;"/><path d="M583.257,15.618l0,14.867l-37.913,0l0,16.673l33.559,0l0,14.868l-33.559,0l0,16.885l39.399,0l0,14.868l-54.797,0l0,-78.161l53.311,0Z" style="fill:#222;fill-rule:nonzero;"/><path d="M642.408,34.521c-6.796,-3.752 -12.708,-5.628 -17.734,-5.628c-3.399,0 -6.036,0.672 -7.912,2.017c-1.876,1.345 -2.814,3.363 -2.814,6.054c0,2.477 1.363,4.654 4.088,6.531c2.726,1.876 6.354,3.663 10.885,5.363c3.682,1.345 6.832,2.885 9.452,4.619c2.62,1.735 4.797,4.124 6.531,7.168c1.735,3.045 2.602,6.903 2.602,11.576c0,4.035 -1.044,7.77 -3.133,11.204c-2.088,3.433 -5.15,6.159 -9.186,8.177c-4.035,2.018 -8.85,3.027 -14.443,3.027c-4.672,0 -9.31,-0.691 -13.912,-2.071c-4.601,-1.381 -8.885,-3.487 -12.849,-6.319l6.796,-12c2.691,1.982 5.77,3.61 9.239,4.885c3.469,1.274 6.585,1.911 9.346,1.911c3.256,0 6.088,-0.69 8.495,-2.07c2.408,-1.381 3.611,-3.629 3.611,-6.744c0,-4.036 -3.788,-7.54 -11.363,-10.514c-4.46,-1.769 -8.177,-3.469 -11.151,-5.097c-2.973,-1.628 -5.54,-3.965 -7.699,-7.009c-2.159,-3.044 -3.239,-6.867 -3.239,-11.469c0,-6.726 2.212,-12.142 6.637,-16.248c4.425,-4.107 10.319,-6.337 17.682,-6.691c5.806,0 10.655,0.655 14.549,1.965c3.894,1.309 7.682,3.168 11.363,5.575l-5.841,11.788Z" style="fill:#222;fill-rule:nonzero;"/><path d="M709.95,15.618l0,14.867l-19.009,0l0,63.294l-15.399,0l0,-63.294l-18.266,0l0,-14.867l52.674,0Z" style="fill:#222;fill-rule:nonzero;"/></g></svg>