<svg id="Layer_1" data-name="Layer 1" xmlns="http://www.w3.org/2000/svg" viewBox="0 0 500 93.06"><defs><style>.cls-1{fill:#292439;}</style></defs><title>logo-wordmark-blue-500-svg</title><path class="cls-1" d="M204.7,41.19l-14.62-.74A1.06,1.06,0,0,1,189,39.4L191,1.06a1.15,1.15,0,0,0-2.13-.5L161.68,50.42a1,1,0,0,0,.95,1.45l14.62.74a1.06,1.06,0,0,1,1.07,1L176.39,92a1.14,1.14,0,0,0,2.12.5l27.15-49.86A1,1,0,0,0,204.7,41.19Z"/><path class="cls-1" d="M51.64,84.28,29,52.07,17.74,64.53V84.28H0V5.7H17.74V42.3L50.29,5.7H71L41.31,38.37,72.85,84.28Z"/><polygon class="cls-1" points="80.31 55.64 110.24 55.64 110.24 42.56 80.31 42.56 80.31 31.12 106.71 31.12 99.68 18.04 64.1 18.04 64.1 63.29 75.84 80.38 114.45 80.38 114.45 67.31 80.31 67.31 80.31 55.64"/><polygon class="cls-1" points="151.12 18.04 136.43 44.62 121.5 18.04 105.34 18.04 128.42 60.62 128.42 80.39 144.64 80.39 144.64 59.97 167.32 18.04 151.12 18.04"/><polygon class="cls-1" points="475.26 43.65 498.49 18.04 479.69 18.04 456.03 44.84 456.03 18.04 439.82 18.04 439.82 80.39 456.03 80.39 456.03 64.83 464.02 56.08 480.55 80.39 500 80.39 475.26 43.65"/><path class="cls-1" d="M224.49,25.74c0-5,4.57-7.78,11.61-7.78,6,0,15.07,2.64,23.44,7.9l6-13.38A52.36,52.36,0,0,0,237.33,4c-17.53,0-29.26,9.05-29.26,23.11,0,28.82,42,19.21,42,36.13,0,5.72-5,9.15-13.4,9.15S217,66.23,208.93,58.67l-7.63,14c8.37,7.66,22.63,13.61,35.13,13.61,17.2,0,29.92-8.8,29.92-23.79C266.46,33.4,224.49,42.32,224.49,25.74Z"/><path class="cls-1" d="M325.42,40.42c0-14.3-9.32-22.38-25.84-22.38H271.42l.68,62.34h15.95V64.28h11.53C316.1,64.28,325.42,55.52,325.42,40.42ZM298.81,50.85H288.05V31.46h10.76c7,0,11,3.2,11,9.53S305.8,50.85,298.81,50.85Z"/><path class="cls-1" d="M424,60c7.24-3.67,11.23-10.59,11.23-20.1,0-13.94-9.62-21.82-26-21.82H381v43.9h0l7.76,18.44h8.44V63.09h12.41l9.08,17.29H437ZM409.23,50h-12V31.12h12c6.69,0,10.58,3.12,10.58,9.28S415.92,50,409.23,50Z"/><path class="cls-1" d="M375.85,61.94h0L357.37,18H340.62l-26.9,62.34h16.63l4.33-10.91h27.44l4.22,10.91H383.6ZM358.12,42.08,346.44,63.53a.49.49,0,0,1-.91-.21l.83-16.49a.46.46,0,0,0-.46-.46l-6.29-.32a.43.43,0,0,1-.41-.62L350.88,24a.49.49,0,0,1,.91.22L351,40.69a.45.45,0,0,0,.46.45l6.29.32A.44.44,0,0,1,358.12,42.08Z"/></svg>