<?xml version="1.0" encoding="UTF-8" standalone="no"?><!DOCTYPE svg PUBLIC "-//W3C//DTD SVG 1.1//EN" "http://www.w3.org/Graphics/SVG/1.1/DTD/svg11.dtd"><svg width="100%" height="100%" viewBox="0 0 315 262" version="1.1" xmlns="http://www.w3.org/2000/svg" xmlns:xlink="http://www.w3.org/1999/xlink" xml:space="preserve" xmlns:serif="http://www.serif.com/" style="fill-rule:evenodd;clip-rule:evenodd;stroke-linejoin:round;stroke-miterlimit:1.41421;"><rect id="Artboard1" x="0" y="0" width="314.646" height="261.905" style="fill:none;"/><path d="M12.534,15.081l196.022,0l0,49.25l-68.493,0l0,179.388l-59.688,0l0,-179.388l-67.841,0l0,-49.25Z" style="fill:#ef5a25;fill-rule:nonzero;"/><path d="M265.296,93.606c-7.148,-9.04 -15.663,-16.241 -25.544,-21.602c-9.882,-5.361 -19.658,-8.042 -29.329,-8.042c-11.143,0 -21.287,2.786 -30.432,8.357c-9.146,5.571 -16.347,13.245 -21.603,23.022c-5.256,9.776 -7.884,20.656 -7.884,32.64c0,11.983 2.628,22.863 7.884,32.64c5.256,9.776 12.457,17.45 21.603,23.021c9.145,5.571 19.289,8.357 30.432,8.357c9.041,0 18.501,-2.313 28.383,-6.938c9.881,-4.625 18.711,-10.932 26.49,-18.922l33.744,36.267c-11.984,12.615 -26.228,22.654 -42.732,30.117c-16.504,7.464 -32.85,11.196 -49.038,11.196c-21.866,0 -41.628,-5.046 -59.289,-15.138c-17.66,-10.091 -31.536,-23.862 -41.628,-41.312c-10.091,-17.45 -15.137,-37.003 -15.137,-58.658c0,-21.444 5.151,-40.787 15.453,-58.026c10.302,-17.24 24.44,-30.801 42.416,-40.682c17.976,-9.882 38.106,-14.822 60.392,-14.822c16.399,0 32.588,3.416 48.566,10.249c15.978,6.833 29.539,16.136 40.682,27.91l-33.429,40.366Z" style="fill:#333;fill-rule:nonzero;"/></svg>