<svg id="Layer_1" data-name="Layer 1" xmlns="http://www.w3.org/2000/svg" viewBox="0 0 28.55 27.85"><defs><style>.cls-1{opacity:0.65;}.cls-2{fill:#fff;}</style></defs><title>github</title><g class="cls-1"><path class="cls-2" d="M3039.45,139.57a14.21,14.21,0,0,0-5.19-5.19,14.36,14.36,0,0,0-14.33,0,14.21,14.21,0,0,0-5.19,5.19,14.29,14.29,0,0,0,7.84,20.71,0.83,0.83,0,0,0,.74-0.13,0.73,0.73,0,0,0,.24-0.56s0-.37,0-1,0-1.18,0-1.65l-0.43.07a5.45,5.45,0,0,1-1,.07,7.86,7.86,0,0,1-1.29-.13,2.89,2.89,0,0,1-1.25-.56,2.36,2.36,0,0,1-.82-1.14l-0.19-.43a4.64,4.64,0,0,0-.59-0.95,2.24,2.24,0,0,0-.81-0.71l-0.13-.09a1.36,1.36,0,0,1-.24-0.22,1,1,0,0,1-.17-0.26,0.16,0.16,0,0,1,.09-0.21,1.21,1.21,0,0,1,.54-0.08l0.37,0.06a2.71,2.71,0,0,1,.92.45,3,3,0,0,1,.9,1,3.28,3.28,0,0,0,1,1.16,2.19,2.19,0,0,0,1.22.4,5.28,5.28,0,0,0,1.06-.09,3.7,3.7,0,0,0,.84-0.28,3,3,0,0,1,.91-1.91,12.73,12.73,0,0,1-1.9-.33,7.58,7.58,0,0,1-1.75-.73,5,5,0,0,1-1.5-1.24,6,6,0,0,1-1-2A9.28,9.28,0,0,1,3018,146a5.42,5.42,0,0,1,1.47-3.83,5,5,0,0,1,.13-3.79,2.6,2.6,0,0,1,1.6.25,11.17,11.17,0,0,1,1.55.72q0.49,0.3.79,0.5a13.42,13.42,0,0,1,7.14,0l0.71-.45a10,10,0,0,1,1.71-.82,2.44,2.44,0,0,1,1.51-.2,5,5,0,0,1,.15,3.79,5.42,5.42,0,0,1,1.47,3.83,9.38,9.38,0,0,1-.38,2.8,5.75,5.75,0,0,1-1,2,5.2,5.2,0,0,1-1.51,1.24,7.6,7.6,0,0,1-1.75.72,12.71,12.71,0,0,1-1.9.33,3.31,3.31,0,0,1,1,2.64v3.92a0.74,0.74,0,0,0,.23.56,0.81,0.81,0,0,0,.73.13A14.3,14.3,0,0,0,3039.45,139.57Z" transform="translate(-3012.82 -132.46)"/></g></svg>