<svg id="Layer_1" data-name="Layer 1" xmlns="http://www.w3.org/2000/svg" viewBox="0 0 37.37 37.53"><defs><style>.cls-1{fill:#c66051;}</style></defs><title>globe-red</title><path class="cls-1" d="M2889.25,3140l-2.4,5.45a0.4,0.4,0,0,1-.37.22h-1.23a0.4,0.4,0,0,1-.37-0.22l-1.14-2.6c-0.11-.26-0.21-0.5-0.31-0.75-0.11.27-.21,0.52-0.32,0.76l-1.2,2.6a0.4,0.4,0,0,1-.37.22h-1.23a0.4,0.4,0,0,1-.37-0.23l-2.25-5.45a0.31,0.31,0,0,1,0-.32,0.41,0.41,0,0,1,.32-0.15h1.38a0.4,0.4,0,0,1,.38.24l1,2.77,0.23,0.67,0.28-.67,1.22-2.79a0.4,0.4,0,0,1,.37-0.22H2884a0.4,0.4,0,0,1,.37.23l1.15,2.73,0.28,0.69c0.07-.2.15-0.43,0.25-0.67l1.06-2.74a0.4,0.4,0,0,1,.38-0.24h1.34a0.42,0.42,0,0,1,.33.15A0.32,0.32,0,0,1,2889.25,3140Zm12.88,0-2.4,5.45a0.4,0.4,0,0,1-.37.22h-1.23a0.4,0.4,0,0,1-.37-0.22l-1.14-2.6c-0.11-.26-0.21-0.5-0.31-0.75-0.11.27-.21,0.52-0.32,0.76l-1.2,2.6a0.4,0.4,0,0,1-.37.22h-1.23a0.4,0.4,0,0,1-.37-0.23l-2.25-5.45a0.31,0.31,0,0,1,0-.32,0.42,0.42,0,0,1,.32-0.15h1.38a0.4,0.4,0,0,1,.38.24l1,2.77,0.23,0.67,0.28-.67,1.22-2.79a0.4,0.4,0,0,1,.37-0.22h1.14a0.4,0.4,0,0,1,.37.23l1.15,2.73,0.28,0.69c0.07-.2.15-0.43,0.25-0.67l1.06-2.74a0.4,0.4,0,0,1,.38-0.24h1.34a0.41,0.41,0,0,1,.33.15A0.31,0.31,0,0,1,2902.12,3140Zm12.88,0-2.4,5.45a0.4,0.4,0,0,1-.37.22H2911a0.4,0.4,0,0,1-.37-0.22l-1.14-2.6c-0.11-.26-0.21-0.5-0.31-0.75-0.11.27-.22,0.52-0.32,0.76l-1.2,2.6a0.4,0.4,0,0,1-.37.22h-1.23a0.4,0.4,0,0,1-.38-0.23l-2.25-5.45a0.32,0.32,0,0,1,0-.32,0.42,0.42,0,0,1,.33-0.15h1.39a0.39,0.39,0,0,1,.38.24l1,2.77,0.23,0.67,0.28-.67,1.22-2.79a0.4,0.4,0,0,1,.37-0.22h1.14a0.4,0.4,0,0,1,.37.23l1.15,2.73,0.28,0.69c0.07-.2.15-0.43,0.25-0.67l1.07-2.74a0.39,0.39,0,0,1,.38-0.24h1.34a0.41,0.41,0,0,1,.33.15A0.32,0.32,0,0,1,2915,3140Z" transform="translate(-2877.66 -3123.8)"/><path class="cls-1" d="M2881.49,3136.79a15.94,15.94,0,0,1,1.53-2.94,1.39,1.39,0,0,0,.27.05H2886a27,27,0,0,0-.71,2.89h3a23.19,23.19,0,0,1,.81-2.89h14.41a23.19,23.19,0,0,1,.81,2.89h3a27,27,0,0,0-.71-2.89h2.71a1.43,1.43,0,0,0,.27-0.05,16.12,16.12,0,0,1,1.52,2.94h3.06a18.75,18.75,0,0,0-35.69,0h3.06Zm25.65-5.77h-1.71a18.1,18.1,0,0,0-1.23-2.19A15.91,15.91,0,0,1,2907.14,3131Zm-10.86-4.33c2.24,0,4.31,1.67,5.86,4.33h-11.73C2892,3128.36,2894,3126.69,2896.27,3126.69Zm-7.92,2.14a18.29,18.29,0,0,0-1.23,2.19h-1.71A16,16,0,0,1,2888.35,3128.83Z" transform="translate(-2877.66 -3123.8)"/><path class="cls-1" d="M2911.06,3148.34a16,16,0,0,1-1.53,2.94,1.39,1.39,0,0,0-.27-0.05h-2.72a27,27,0,0,0,.71-2.89h-3a22.88,22.88,0,0,1-.81,2.89h-14.41a23.12,23.12,0,0,1-.81-2.89h-3a27,27,0,0,0,.71,2.89h-2.72a1.39,1.39,0,0,0-.27.05,16,16,0,0,1-1.53-2.94h-3.06a18.75,18.75,0,0,0,35.69,0h-3.06Zm-25.65,5.77h1.71a18.18,18.18,0,0,0,1.23,2.19A16,16,0,0,1,2885.41,3154.12Zm10.86,4.33c-2.24,0-4.31-1.67-5.86-4.33h11.72C2900.58,3156.78,2898.51,3158.45,2896.27,3158.45Zm7.92-2.14a18,18,0,0,0,1.23-2.19h1.71A16,16,0,0,1,2904.2,3156.31Z" transform="translate(-2877.66 -3123.8)"/></svg>