<svg id="Layer_1" data-name="Layer 1" xmlns="http://www.w3.org/2000/svg" viewBox="0 0 37.37 41.91"><defs><style>.cls-1{fill:#f4f4f4;}</style></defs><title>globe</title><path class="cls-1" d="M2887.07,2577.06l-2.4,6.09a0.4,0.4,0,0,1-.37.25h-1.23a0.39,0.39,0,0,1-.37-0.25l-1.14-2.91c-0.11-.29-0.21-0.56-0.31-0.83-0.11.3-.21,0.58-0.32,0.85l-1.2,2.9a0.4,0.4,0,0,1-.37.24h-1.23a0.4,0.4,0,0,1-.37-0.25l-2.25-6.09a0.38,0.38,0,0,1,0-.36,0.4,0.4,0,0,1,.32-0.17h1.38a0.4,0.4,0,0,1,.38.27l1,3.1,0.23,0.74,0.28-.75,1.22-3.11a0.4,0.4,0,0,1,.37-0.25h1.14a0.4,0.4,0,0,1,.37.25l1.15,3c0.1,0.27.2,0.53,0.28,0.77,0.07-.23.15-0.48,0.25-0.75l1.06-3.06a0.4,0.4,0,0,1,.38-0.26h1.34a0.4,0.4,0,0,1,.33.17A0.39,0.39,0,0,1,2887.07,2577.06Zm12.88,0-2.4,6.09a0.4,0.4,0,0,1-.37.25h-1.23a0.4,0.4,0,0,1-.37-0.25l-1.14-2.91c-0.11-.29-0.21-0.56-0.31-0.83-0.11.3-.21,0.58-0.32,0.85l-1.2,2.9a0.39,0.39,0,0,1-.37.24H2891a0.4,0.4,0,0,1-.37-0.25l-2.25-6.09a0.38,0.38,0,0,1,0-.36,0.4,0.4,0,0,1,.32-0.17h1.38a0.4,0.4,0,0,1,.38.27l1,3.1,0.23,0.74,0.28-.75,1.22-3.11a0.39,0.39,0,0,1,.37-0.25h1.14a0.4,0.4,0,0,1,.37.25l1.15,3c0.1,0.27.19,0.53,0.28,0.77,0.07-.23.15-0.48,0.25-0.75l1.06-3.06a0.4,0.4,0,0,1,.38-0.26h1.34a0.4,0.4,0,0,1,.33.17A0.38,0.38,0,0,1,2899.95,2577.06Zm12.88,0-2.4,6.09a0.4,0.4,0,0,1-.37.25h-1.23a0.39,0.39,0,0,1-.37-0.25l-1.14-2.91c-0.11-.29-0.21-0.56-0.31-0.83-0.11.3-.22,0.58-0.32,0.85l-1.2,2.9a0.4,0.4,0,0,1-.37.24h-1.23a0.4,0.4,0,0,1-.38-0.25l-2.25-6.09a0.39,0.39,0,0,1,0-.36,0.4,0.4,0,0,1,.33-0.17H2903a0.39,0.39,0,0,1,.38.27l1,3.1,0.23,0.74,0.28-.75,1.22-3.11a0.4,0.4,0,0,1,.37-0.25h1.14a0.4,0.4,0,0,1,.37.25l1.15,3,0.28,0.77c0.07-.23.15-0.48,0.25-0.75l1.07-3.06a0.39,0.39,0,0,1,.38-0.26h1.34A0.39,0.39,0,0,1,2912.82,2577.06Z" transform="translate(-2875.48 -2558.97)"/><path class="cls-1" d="M2879.31,2573.48a18.64,18.64,0,0,1,1.53-3.28,1.26,1.26,0,0,0,.27.06h2.71c-0.29,1-.51,2.11-0.71,3.22h3a28.29,28.29,0,0,1,.81-3.22h14.41a28.29,28.29,0,0,1,.81,3.22h3c-0.19-1.11-.42-2.2-0.71-3.22h2.71a1.3,1.3,0,0,0,.27-0.06,18.84,18.84,0,0,1,1.52,3.28h3.06c-2.44-8.41-9.51-14.51-17.84-14.51s-15.4,6.1-17.85,14.51h3.06ZM2905,2567h-1.71a21,21,0,0,0-1.23-2.45A16.17,16.17,0,0,1,2905,2567Zm-10.86-4.84c2.24,0,4.31,1.86,5.86,4.84h-11.73C2889.79,2564.05,2891.86,2562.19,2894.1,2562.19Zm-7.92,2.39a21.21,21.21,0,0,0-1.23,2.45h-1.71A16.25,16.25,0,0,1,2886.17,2564.58Z" transform="translate(-2875.48 -2558.97)"/><path class="cls-1" d="M2908.88,2586.37a18.74,18.74,0,0,1-1.53,3.28,1.26,1.26,0,0,0-.27-0.06h-2.72c0.29-1,.51-2.11.71-3.22h-3a27.91,27.91,0,0,1-.81,3.22h-14.41a28.21,28.21,0,0,1-.81-3.22h-3c0.19,1.11.42,2.2,0.71,3.22h-2.72a1.26,1.26,0,0,0-.27.06,18.74,18.74,0,0,1-1.53-3.28h-3.06c2.44,8.41,9.51,14.51,17.85,14.51s15.4-6.1,17.84-14.51h-3.06Zm-25.65,6.45h1.71a21.08,21.08,0,0,0,1.23,2.45A16.21,16.21,0,0,1,2883.23,2592.82Zm10.86,4.84c-2.24,0-4.31-1.86-5.86-4.84H2900C2898.4,2595.8,2896.34,2597.66,2894.1,2597.66Zm7.92-2.39a20.86,20.86,0,0,0,1.23-2.45H2905A16.27,16.27,0,0,1,2902,2595.27Z" transform="translate(-2875.48 -2558.97)"/></svg>