<svg id="Layer_1" data-name="Layer 1" xmlns="http://www.w3.org/2000/svg" viewBox="0 0 27.43 26.21"><defs><style>.cls-1{opacity:0.65;}.cls-2{fill:#fff;}</style></defs><title>linkedin</title><g class="cls-1"><path id="LinkedIn" class="cls-2" d="M3138.72,150.17v10.14h-5.88v-9.46c0-2.38-.85-4-3-4a3.22,3.22,0,0,0-3,2.15,4,4,0,0,0-.2,1.43v9.88h-5.88s0.08-16,0-17.69h5.88v2.51l0,0.06h0v-0.06a5.84,5.84,0,0,1,5.3-2.92C3135.82,142.21,3138.72,144.73,3138.72,150.17Zm-24.1-16.07a3.06,3.06,0,1,0-.08,6.11h0A3.07,3.07,0,1,0,3114.62,134.1Zm-3,26.21h5.88V142.62h-5.88v17.69Z" transform="translate(-3111.29 -134.1)"/></g></svg>