<svg id="Layer_1" data-name="Layer 1" xmlns="http://www.w3.org/2000/svg" viewBox="0 0 38.28 38.28"><defs><style>.cls-1{fill:#c66051;}</style></defs><title>list-red</title><path class="cls-1" d="M2924,2874.48H2887.3a0.78,0.78,0,0,0-.78.78V2912a0.78,0.78,0,0,0,.78.78h31.22a0.78,0.78,0,1,0,0-1.56h-30.44V2876h35.17V2912a0.78,0.78,0,1,0,1.56,0v-36.73A0.78,0.78,0,0,0,2924,2874.48Z" transform="translate(-2886.53 -2874.48)"/><path class="cls-1" d="M2895.07,2882.58a3,3,0,1,0,3,3A3,3,0,0,0,2895.07,2882.58Zm0,4.41a1.43,1.43,0,1,1,1.43-1.43A1.43,1.43,0,0,1,2895.07,2887Z" transform="translate(-2886.53 -2874.48)"/><path class="cls-1" d="M2918.57,2884.79H2900.4a0.78,0.78,0,0,0,0,1.56h18.18A0.78,0.78,0,0,0,2918.57,2884.79Z" transform="translate(-2886.53 -2874.48)"/><path class="cls-1" d="M2895.07,2890.63a0.78,0.78,0,0,0,0,1.56,1.43,1.43,0,1,1-1.43,1.43,0.78,0.78,0,1,0-1.56,0A3,3,0,1,0,2895.07,2890.63Z" transform="translate(-2886.53 -2874.48)"/><path class="cls-1" d="M2918.57,2892.84H2900.4a0.78,0.78,0,0,0,0,1.56h18.18A0.78,0.78,0,0,0,2918.57,2892.84Z" transform="translate(-2886.53 -2874.48)"/><path class="cls-1" d="M2895.07,2898.68a3,3,0,1,0,3,3A3,3,0,0,0,2895.07,2898.68Zm0,4.41a1.43,1.43,0,1,1,1.43-1.43A1.43,1.43,0,0,1,2895.07,2903.1Z" transform="translate(-2886.53 -2874.48)"/><path class="cls-1" d="M2918.57,2900.89H2900.4a0.78,0.78,0,0,0,0,1.56h18.18A0.78,0.78,0,0,0,2918.57,2900.89Z" transform="translate(-2886.53 -2874.48)"/></svg>