<svg id="Layer_1" data-name="Layer 1" xmlns="http://www.w3.org/2000/svg" viewBox="0 0 38.28 38.28"><defs><style>.cls-1{fill:#f4f4f4;}</style></defs><title>list</title><path class="cls-1" d="M2921.85,2318.49h-36.73a0.78,0.78,0,0,0-.78.78V2356a0.78,0.78,0,0,0,.78.78h31.22a0.78,0.78,0,0,0,0-1.56h-30.44v-35.17h35.17V2356a0.78,0.78,0,1,0,1.56,0v-36.73A0.78,0.78,0,0,0,2921.85,2318.49Z" transform="translate(-2884.35 -2318.49)"/><path class="cls-1" d="M2892.89,2326.6a3,3,0,1,0,3,3A3,3,0,0,0,2892.89,2326.6Zm0,4.41a1.43,1.43,0,1,1,1.43-1.43A1.43,1.43,0,0,1,2892.89,2331Z" transform="translate(-2884.35 -2318.49)"/><path class="cls-1" d="M2916.4,2328.81h-18.18a0.78,0.78,0,1,0,0,1.56h18.18A0.78,0.78,0,1,0,2916.4,2328.81Z" transform="translate(-2884.35 -2318.49)"/><path class="cls-1" d="M2892.89,2334.65a0.78,0.78,0,1,0,0,1.56,1.43,1.43,0,1,1-1.43,1.43,0.78,0.78,0,0,0-1.56,0A3,3,0,1,0,2892.89,2334.65Z" transform="translate(-2884.35 -2318.49)"/><path class="cls-1" d="M2916.4,2336.86h-18.18a0.78,0.78,0,1,0,0,1.56h18.18A0.78,0.78,0,1,0,2916.4,2336.86Z" transform="translate(-2884.35 -2318.49)"/><path class="cls-1" d="M2892.89,2342.7a3,3,0,1,0,3,3A3,3,0,0,0,2892.89,2342.7Zm0,4.41a1.43,1.43,0,1,1,1.43-1.43A1.43,1.43,0,0,1,2892.89,2347.11Z" transform="translate(-2884.35 -2318.49)"/><path class="cls-1" d="M2916.4,2344.91h-18.18a0.78,0.78,0,0,0,0,1.56h18.18A0.78,0.78,0,0,0,2916.4,2344.91Z" transform="translate(-2884.35 -2318.49)"/></svg>