<svg id="Layer_3" data-name="Layer 3" xmlns="http://www.w3.org/2000/svg" viewBox="0 0 220.31 177.37"><defs><style>.cls-1{fill:#f4f4f4;}</style></defs><title>TC</title><path class="cls-1" d="M1192.21,1644.72v139.19h-44.48V1644.72H1095.5v-36h149.44v36h-52.73Z" transform="translate(-1095.5 -1608.7)"/><path class="cls-1" d="M1315.57,1638l-25.65,30.31c-11.45-13.91-28.38-22.61-43.82-22.61-27.64,0-48.55,21.86-48.55,50.43,0,29.06,20.92,51.17,48.55,51.17,14.69,0,31.62-7.95,43.82-20.37l25.9,27.33c-18.67,19.13-46.31,31.8-72,31.8-52.54,0-91.63-38.5-91.63-89.43,0-50.18,40.09-87.94,93.12-87.94C1271.25,1608.7,1298.14,1620.13,1315.57,1638Z" transform="translate(-1095.5 -1608.7)"/></svg>