<svg id="Layer_1" data-name="Layer 1" xmlns="http://www.w3.org/2000/svg" viewBox="0 0 29.76 24.18"><defs><style>.cls-1{opacity:0.65;}.cls-2{fill:#fff;}</style></defs><title>twitter</title><g class="cls-1"><path class="cls-2" d="M3092.8,139a12.19,12.19,0,0,1-3.51,1,6.13,6.13,0,0,0,2.68-3.38,12.31,12.31,0,0,1-3.88,1.48,6.11,6.11,0,0,0-10.4,5.57,17.33,17.33,0,0,1-12.58-6.38,6.11,6.11,0,0,0,1.89,8.15,6.11,6.11,0,0,1-2.77-.77v0.08a6.11,6.11,0,0,0,4.9,6,6.18,6.18,0,0,1-1.61.21,5.86,5.86,0,0,1-1.15-.11,6.11,6.11,0,0,0,5.7,4.24,12.25,12.25,0,0,1-7.58,2.61,13,13,0,0,1-1.46-.08,17.26,17.26,0,0,0,9.36,2.75c11.23,0,17.37-9.3,17.37-17.37l0-.79A12.19,12.19,0,0,0,3092.8,139Z" transform="translate(-3063.04 -136.13)"/></g></svg>